<?xml version="1.0" encoding="utf-8" standalone="no"?>
<!DOCTYPE svg PUBLIC "-//W3C//DTD SVG 1.1//EN"
  "http://www.w3.org/Graphics/SVG/1.1/DTD/svg11.dtd">
<svg xmlns:xlink="http://www.w3.org/1999/xlink" width="349.2pt" height="347.04pt" viewBox="0 0 349.2 347.04" xmlns="http://www.w3.org/2000/svg" version="1.1">
 <metadata>
  <rdf:RDF xmlns:dc="http://purl.org/dc/elements/1.1/" xmlns:cc="http://creativecommons.org/ns#" xmlns:rdf="http://www.w3.org/1999/02/22-rdf-syntax-ns#">
   <cc:Work>
    <dc:type rdf:resource="http://purl.org/dc/dcmitype/StillImage"/>
    <dc:date>2025-09-19T01:50:27.971942</dc:date>
    <dc:format>image/svg+xml</dc:format>
    <dc:creator>
     <cc:Agent>
      <dc:title>Matplotlib v3.6.3, https://matplotlib.org/</dc:title>
     </cc:Agent>
    </dc:creator>
   </cc:Work>
  </rdf:RDF>
 </metadata>
 <defs>
  <style type="text/css">*{stroke-linejoin: round; stroke-linecap: butt}</style>
 </defs>
 <g id="figure_1">
  <g id="patch_1">
   <path d="M 0 347.04 
L 349.2 347.04 
L 349.2 -0 
L 0 -0 
L 0 347.04 
z
" style="fill: none"/>
  </g>
  <g id="axes_1">
   <g id="patch_2">
    <path d="M 174.6 30.96 
L 35.1 268.56 
L 314.1 268.56 
z
" clip-path="url(#pa4fb85c5bc)" style="fill: #0066cc; stroke: #0066cc; stroke-linejoin: miter"/>
   </g>
   <g id="patch_3">
    <path d="M 174.6 221.04 
C 193.097916 221.04 210.840696 214.781241 223.920698 203.642143 
C 237.0007 192.503044 244.35 177.393064 244.35 161.64 
C 244.35 145.886936 237.0007 130.776956 223.920698 119.637857 
C 210.840696 108.498759 193.097916 102.24 174.6 102.24 
C 156.102084 102.24 138.359304 108.498759 125.279302 119.637857 
C 112.1993 130.776956 104.85 145.886936 104.85 161.64 
C 104.85 177.393064 112.1993 192.503044 125.279302 203.642143 
C 138.359304 214.781241 156.102084 221.04 174.6 221.04 
z
" clip-path="url(#pa4fb85c5bc)" style="fill: #ffffff; stroke: #ffffff; stroke-linejoin: miter"/>
   </g>
   <g id="text_1">
    <!-- R -->
    <g style="fill: #003399" transform="translate(159.2 148.9175) scale(0.4 -0.4)">
     <defs>
      <path id="DejaVuSans-Bold-52" d="M 2297 2597 
Q 2675 2597 2839 2737 
Q 3003 2878 3003 3200 
Q 3003 3519 2839 3656 
Q 2675 3794 2297 3794 
L 1791 3794 
L 1791 2597 
L 2297 2597 
z
M 1791 1766 
L 1791 0 
L 588 0 
L 588 4666 
L 2425 4666 
Q 3347 4666 3776 4356 
Q 4206 4047 4206 3378 
Q 4206 2916 3982 2619 
Q 3759 2322 3309 2181 
Q 3556 2125 3751 1926 
Q 3947 1728 4147 1325 
L 4800 0 
L 3519 0 
L 2950 1159 
Q 2778 1509 2601 1637 
Q 2425 1766 2131 1766 
L 1791 1766 
z
" transform="scale(0.015625)"/>
     </defs>
     <use xlink:href="#DejaVuSans-Bold-52"/>
    </g>
   </g>
   <g id="text_2">
    <!-- &amp; -->
    <g style="fill: #003399" transform="translate(162.391562 169.36625) scale(0.28 -0.28)">
     <defs>
      <path id="DejaVuSans-Bold-26" d="M 2497 3097 
L 3775 1691 
Q 3941 1909 4027 2181 
Q 4113 2453 4128 2797 
L 5100 2797 
Q 5053 2228 4879 1784 
Q 4706 1341 4397 1006 
L 5313 0 
L 3988 0 
L 3681 341 
Q 3353 122 2990 15 
Q 2628 -91 2222 -91 
Q 1400 -91 892 342 
Q 384 775 384 1459 
Q 384 1916 607 2267 
Q 831 2619 1338 2950 
Q 1206 3116 1143 3281 
Q 1081 3447 1081 3628 
Q 1081 4138 1478 4444 
Q 1875 4750 2534 4750 
Q 2819 4750 3126 4704 
Q 3434 4659 3769 4569 
L 3769 3700 
Q 3475 3850 3212 3922 
Q 2950 3994 2700 3994 
Q 2459 3994 2326 3901 
Q 2194 3809 2194 3641 
Q 2194 3534 2270 3398 
Q 2347 3263 2497 3097 
z
M 1875 2322 
Q 1672 2175 1569 1989 
Q 1466 1803 1466 1581 
Q 1466 1222 1731 969 
Q 1997 716 2369 716 
Q 2578 716 2759 780 
Q 2941 844 3097 972 
L 1875 2322 
z
" transform="scale(0.015625)"/>
     </defs>
     <use xlink:href="#DejaVuSans-Bold-26"/>
    </g>
   </g>
   <g id="text_3">
    <!-- E -->
    <g style="fill: #003399" transform="translate(160.9375 196.4375) scale(0.4 -0.4)">
     <defs>
      <path id="DejaVuSans-Bold-45" d="M 588 4666 
L 3834 4666 
L 3834 3756 
L 1791 3756 
L 1791 2888 
L 3713 2888 
L 3713 1978 
L 1791 1978 
L 1791 909 
L 3903 909 
L 3903 0 
L 588 0 
L 588 4666 
z
" transform="scale(0.015625)"/>
     </defs>
     <use xlink:href="#DejaVuSans-Bold-45"/>
    </g>
   </g>
   <g id="text_4">
    <!-- VEDAÇÕES -->
    <g transform="translate(89.921875 302.203125) scale(0.28 -0.28)">
     <defs>
      <path id="DejaVuSans-Bold-56" d="M 31 4666 
L 1241 4666 
L 2478 1222 
L 3713 4666 
L 4922 4666 
L 3194 0 
L 1759 0 
L 31 4666 
z
" transform="scale(0.015625)"/>
      <path id="DejaVuSans-Bold-44" d="M 1791 3756 
L 1791 909 
L 2222 909 
Q 2959 909 3348 1275 
Q 3738 1641 3738 2338 
Q 3738 3031 3350 3393 
Q 2963 3756 2222 3756 
L 1791 3756 
z
M 588 4666 
L 1856 4666 
Q 2919 4666 3439 4514 
Q 3959 4363 4331 4000 
Q 4659 3684 4818 3271 
Q 4978 2859 4978 2338 
Q 4978 1809 4818 1395 
Q 4659 981 4331 666 
Q 3956 303 3431 151 
Q 2906 0 1856 0 
L 588 0 
L 588 4666 
z
" transform="scale(0.015625)"/>
      <path id="DejaVuSans-Bold-41" d="M 3419 850 
L 1538 850 
L 1241 0 
L 31 0 
L 1759 4666 
L 3194 4666 
L 4922 0 
L 3713 0 
L 3419 850 
z
M 1838 1716 
L 3116 1716 
L 2478 3572 
L 1838 1716 
z
" transform="scale(0.015625)"/>
      <path id="DejaVuSans-Bold-c7" d="M 4288 256 
Q 3956 84 3597 -3 
Q 3238 -91 2847 -91 
Q 1681 -91 1000 561 
Q 319 1213 319 2328 
Q 319 3447 1000 4098 
Q 1681 4750 2847 4750 
Q 3238 4750 3597 4662 
Q 3956 4575 4288 4403 
L 4288 3438 
Q 3953 3666 3628 3772 
Q 3303 3878 2944 3878 
Q 2300 3878 1931 3465 
Q 1563 3053 1563 2328 
Q 1563 1606 1931 1193 
Q 2300 781 2944 781 
Q 3303 781 3628 887 
Q 3953 994 4288 1222 
L 4288 256 
z
M 3041 0 
Q 3223 -194 3308 -359 
Q 3394 -525 3394 -672 
Q 3394 -969 3202 -1111 
Q 3010 -1253 2613 -1253 
Q 2463 -1253 2303 -1233 
Q 2144 -1213 1982 -1172 
L 1979 -697 
Q 2135 -747 2264 -770 
Q 2394 -794 2498 -794 
Q 2679 -794 2780 -722 
Q 2882 -650 2882 -525 
Q 2882 -444 2815 -316 
Q 2748 -188 2607 0 
L 3041 0 
z
" transform="scale(0.015625)"/>
      <path id="DejaVuSans-Bold-d5" d="M 2719 3878 
Q 2169 3878 1866 3472 
Q 1563 3066 1563 2328 
Q 1563 1594 1866 1187 
Q 2169 781 2719 781 
Q 3272 781 3575 1187 
Q 3878 1594 3878 2328 
Q 3878 3066 3575 3472 
Q 3272 3878 2719 3878 
z
M 2719 4750 
Q 3844 4750 4481 4106 
Q 5119 3463 5119 2328 
Q 5119 1197 4481 553 
Q 3844 -91 2719 -91 
Q 1597 -91 958 553 
Q 319 1197 319 2328 
Q 319 3463 958 4106 
Q 1597 4750 2719 4750 
z
M 2726 5249 
L 2551 5358 
Q 2542 5365 2520 5377 
Q 2379 5458 2292 5458 
Q 2192 5458 2129 5364 
Q 2067 5271 2067 5115 
L 2067 5096 
L 1633 5096 
Q 1633 5111 1636 5142 
Q 1639 5174 1639 5190 
Q 1639 5521 1806 5724 
Q 1973 5927 2245 5927 
Q 2361 5927 2476 5888 
Q 2592 5849 2714 5774 
L 2898 5652 
Q 2964 5608 3025 5584 
Q 3086 5561 3136 5561 
Q 3251 5561 3312 5655 
Q 3373 5749 3373 5927 
L 3808 5927 
Q 3808 5908 3804 5877 
Q 3801 5846 3801 5830 
Q 3801 5499 3634 5297 
Q 3467 5096 3195 5096 
Q 3076 5096 2967 5130 
Q 2858 5165 2726 5249 
z
" transform="scale(0.015625)"/>
      <path id="DejaVuSans-Bold-53" d="M 3834 4519 
L 3834 3531 
Q 3450 3703 3084 3790 
Q 2719 3878 2394 3878 
Q 1963 3878 1756 3759 
Q 1550 3641 1550 3391 
Q 1550 3203 1689 3098 
Q 1828 2994 2194 2919 
L 2706 2816 
Q 3484 2659 3812 2340 
Q 4141 2022 4141 1434 
Q 4141 663 3683 286 
Q 3225 -91 2284 -91 
Q 1841 -91 1394 -6 
Q 947 78 500 244 
L 500 1259 
Q 947 1022 1364 901 
Q 1781 781 2169 781 
Q 2563 781 2772 912 
Q 2981 1044 2981 1288 
Q 2981 1506 2839 1625 
Q 2697 1744 2272 1838 
L 1806 1941 
Q 1106 2091 782 2419 
Q 459 2747 459 3303 
Q 459 4000 909 4375 
Q 1359 4750 2203 4750 
Q 2588 4750 2994 4692 
Q 3400 4634 3834 4519 
z
" transform="scale(0.015625)"/>
     </defs>
     <use xlink:href="#DejaVuSans-Bold-56"/>
     <use xlink:href="#DejaVuSans-Bold-45" x="77.392578"/>
     <use xlink:href="#DejaVuSans-Bold-44" x="145.703125"/>
     <use xlink:href="#DejaVuSans-Bold-41" x="228.710938"/>
     <use xlink:href="#DejaVuSans-Bold-c7" x="306.103516"/>
     <use xlink:href="#DejaVuSans-Bold-d5" x="379.492188"/>
     <use xlink:href="#DejaVuSans-Bold-45" x="464.501953"/>
     <use xlink:href="#DejaVuSans-Bold-53" x="532.8125"/>
    </g>
   </g>
   <g id="text_5">
    <!-- INDUSTRIAIS -->
    <g transform="translate(101.984375 316.84675) scale(0.2 -0.2)">
     <defs>
      <path id="DejaVuSans-Bold-49" d="M 588 4666 
L 1791 4666 
L 1791 0 
L 588 0 
L 588 4666 
z
" transform="scale(0.015625)"/>
      <path id="DejaVuSans-Bold-4e" d="M 588 4666 
L 1931 4666 
L 3628 1466 
L 3628 4666 
L 4769 4666 
L 4769 0 
L 3425 0 
L 1728 3200 
L 1728 0 
L 588 0 
L 588 4666 
z
" transform="scale(0.015625)"/>
      <path id="DejaVuSans-Bold-55" d="M 588 4666 
L 1791 4666 
L 1791 1869 
Q 1791 1291 1980 1042 
Q 2169 794 2597 794 
Q 3028 794 3217 1042 
Q 3406 1291 3406 1869 
L 3406 4666 
L 4609 4666 
L 4609 1869 
Q 4609 878 4112 393 
Q 3616 -91 2597 -91 
Q 1581 -91 1084 393 
Q 588 878 588 1869 
L 588 4666 
z
" transform="scale(0.015625)"/>
      <path id="DejaVuSans-Bold-54" d="M 31 4666 
L 4331 4666 
L 4331 3756 
L 2784 3756 
L 2784 0 
L 1581 0 
L 1581 3756 
L 31 3756 
L 31 4666 
z
" transform="scale(0.015625)"/>
     </defs>
     <use xlink:href="#DejaVuSans-Bold-49"/>
     <use xlink:href="#DejaVuSans-Bold-4e" x="37.207031"/>
     <use xlink:href="#DejaVuSans-Bold-44" x="120.898438"/>
     <use xlink:href="#DejaVuSans-Bold-55" x="203.90625"/>
     <use xlink:href="#DejaVuSans-Bold-53" x="285.107422"/>
     <use xlink:href="#DejaVuSans-Bold-54" x="357.128906"/>
     <use xlink:href="#DejaVuSans-Bold-52" x="425.341797"/>
     <use xlink:href="#DejaVuSans-Bold-49" x="502.34375"/>
     <use xlink:href="#DejaVuSans-Bold-41" x="539.550781"/>
     <use xlink:href="#DejaVuSans-Bold-49" x="616.943359"/>
     <use xlink:href="#DejaVuSans-Bold-53" x="654.150391"/>
    </g>
   </g>
  </g>
 </g>
 <defs>
  <clipPath id="pa4fb85c5bc">
   <rect x="7.2" y="7.2" width="334.8" height="332.64"/>
  </clipPath>
 </defs>
</svg>
